<svg width="32" height="33" viewBox="0 0 32 33" fill="none" xmlns="http://www.w3.org/2000/svg">
<path d="M16 19.7629C14.5 19.7629 13.2 18.5629 13.2 16.9629C13.2 15.4629 14.4 14.1629 16 14.1629C17.5 14.1629 18.8 15.3629 18.8 16.9629C18.8 18.4629 17.5 19.7629 16 19.7629Z" fill="#00130C"/>
<path fill-rule="evenodd" clip-rule="evenodd" d="M19.4 10.1629H12.6C11.8 10.2629 11.4 10.3629 11.1 10.4629C10.7 10.5629 10.4 10.7629 10.1 11.0629C9.86261 11.3003 9.75045 11.5377 9.61489 11.8246C9.57916 11.9002 9.5417 11.9795 9.5 12.0629C9.48453 12.1093 9.46667 12.1581 9.44752 12.2104C9.34291 12.4962 9.2 12.8866 9.2 13.5629V20.3629C9.3 21.1629 9.4 21.5629 9.5 21.8629C9.6 22.2629 9.8 22.5629 10.1 22.8629C10.3374 23.1003 10.5748 23.2124 10.8617 23.348C10.9374 23.3838 11.0165 23.4211 11.1 23.4629C11.1464 23.4784 11.1952 23.4962 11.2475 23.5154C11.5333 23.62 11.9238 23.7629 12.6 23.7629H19.4C20.2 23.6629 20.6 23.5629 20.9 23.4629C21.3 23.3629 21.6 23.1629 21.9 22.8629C22.1374 22.6255 22.2495 22.3881 22.3851 22.1012C22.4209 22.0255 22.4583 21.9464 22.5 21.8629C22.5155 21.8165 22.5333 21.7677 22.5525 21.7154C22.6571 21.4296 22.8 21.0391 22.8 20.3629V13.5629C22.7 12.7629 22.6 12.3629 22.5 12.0629C22.4 11.6629 22.2 11.3629 21.9 11.0629C21.6626 10.8255 21.4252 10.7133 21.1383 10.5778C21.0627 10.5421 20.9833 10.5046 20.9 10.4629C20.8536 10.4474 20.8048 10.4296 20.7525 10.4104C20.4667 10.3058 20.0762 10.1629 19.4 10.1629ZM16 12.6629C13.6 12.6629 11.7 14.5629 11.7 16.9629C11.7 19.3629 13.6 21.2629 16 21.2629C18.4 21.2629 20.3 19.3629 20.3 16.9629C20.3 14.5629 18.4 12.6629 16 12.6629ZM21.4 12.5629C21.4 13.1152 20.9523 13.5629 20.4 13.5629C19.8477 13.5629 19.4 13.1152 19.4 12.5629C19.4 12.0106 19.8477 11.5629 20.4 11.5629C20.9523 11.5629 21.4 12.0106 21.4 12.5629Z" fill="#00130C"/>
<path fill-rule="evenodd" clip-rule="evenodd" d="M0 16.9629C0 8.12634 7.16344 0.962891 16 0.962891C24.8366 0.962891 32 8.12634 32 16.9629C32 25.7994 24.8366 32.9629 16 32.9629C7.16344 32.9629 0 25.7994 0 16.9629ZM12.6 8.66289H19.4C20.3 8.76289 20.9 8.86289 21.4 9.06289C22 9.36289 22.4 9.56289 22.9 10.0629C23.4 10.5629 23.7 11.0629 23.9 11.5629C24.1 12.0629 24.3 12.6629 24.3 13.5629V20.3629C24.2 21.2629 24.1 21.8629 23.9 22.3629C23.6 22.9629 23.4 23.3629 22.9 23.8629C22.4 24.3629 21.9 24.6629 21.4 24.8629C20.9 25.0629 20.3 25.2629 19.4 25.2629H12.6C11.7 25.1629 11.1 25.0629 10.6 24.8629C10 24.5629 9.6 24.3629 9.1 23.8629C8.6 23.3629 8.3 22.8629 8.1 22.3629C7.9 21.8629 7.7 21.2629 7.7 20.3629V13.5629C7.8 12.6629 7.9 12.0629 8.1 11.5629C8.4 10.9629 8.6 10.5629 9.1 10.0629C9.6 9.56289 10.1 9.26289 10.6 9.06289C11.1 8.86289 11.7 8.66289 12.6 8.66289Z" fill="#00130C"/>
</svg>
