<svg width="32" height="33" viewBox="0 0 32 33" fill="none" xmlns="http://www.w3.org/2000/svg">
<path fill-rule="evenodd" clip-rule="evenodd" d="M16 32.9629C7.16344 32.9629 0 25.7994 0 16.9629C0 8.12634 7.16344 0.962891 16 0.962891C24.8366 0.962891 32 8.12634 32 16.9629C32 25.7994 24.8366 32.9629 16 32.9629ZM16.6919 12.9703C15.2589 13.5663 12.3949 14.7999 8.09992 16.6712C7.40248 16.9485 7.03714 17.2199 7.00388 17.4852C6.94767 17.9335 7.50915 18.1101 8.27374 18.3505C8.37774 18.3832 8.4855 18.4171 8.59598 18.453C9.34822 18.6975 10.3601 18.9836 10.8862 18.995C11.3633 19.0053 11.8959 18.8085 12.4839 18.4048C16.4968 15.696 18.5683 14.3268 18.6983 14.2973C18.7901 14.2764 18.9172 14.2503 19.0034 14.3268C19.0895 14.4034 19.0811 14.5484 19.0719 14.5873C19.0163 14.8244 16.8123 16.8735 15.6717 17.9339C15.3161 18.2644 15.0639 18.4989 15.0124 18.5525C14.8969 18.6724 14.7791 18.7859 14.666 18.895C13.9672 19.5687 13.4431 20.0739 14.695 20.8989C15.2967 21.2954 15.7781 21.6232 16.2584 21.9503C16.7829 22.3075 17.306 22.6638 17.9829 23.1075C18.1554 23.2205 18.3201 23.3379 18.4805 23.4523C19.0909 23.8875 19.6393 24.2784 20.3168 24.2161C20.7105 24.1799 21.1172 23.8097 21.3237 22.7056C21.8118 20.0964 22.7712 14.443 22.9929 12.1134C23.0123 11.9092 22.9879 11.648 22.9683 11.5334C22.9486 11.4187 22.9076 11.2553 22.7586 11.1344C22.582 10.9911 22.3095 10.9609 22.1877 10.963C21.6335 10.9729 20.7834 11.2685 16.6919 12.9703Z" fill="#F5F5F5"/>
</svg>
