<svg width="32" height="33" viewBox="0 0 32 33" fill="none" xmlns="http://www.w3.org/2000/svg">
<path d="M10.6987 13.8322C10.784 17.9922 12.864 20.4882 16.512 20.4882H16.7253V18.1095C18.064 18.2429 19.0773 19.2242 19.4827 20.4882H21.376C21.1818 19.77 20.8376 19.101 20.366 18.5255C19.8943 17.95 19.3061 17.4811 18.64 17.1495C19.2369 16.7861 19.7524 16.3034 20.1543 15.7317C20.5563 15.16 20.836 14.5115 20.976 13.8269H19.2587C18.8853 15.1495 17.776 16.3495 16.7253 16.4615V13.8322H15.0027V18.4402C13.936 18.1735 12.592 16.8829 12.5333 13.8322H10.6987Z" fill="#F5F5F5"/>
<path fill-rule="evenodd" clip-rule="evenodd" d="M16 0.962891C24.8366 0.962891 32 8.12634 32 16.9629C32 25.7994 24.8366 32.9629 16 32.9629C7.16344 32.9629 0 25.7994 0 16.9629C0 8.12634 7.16344 0.962891 16 0.962891ZM8 16.6429C8 13.0216 8 11.2136 9.12 10.0829C10.256 8.96289 12.064 8.96289 15.68 8.96289H16.32C19.9413 8.96289 21.7493 8.96289 22.88 10.0829C24 11.2189 24 13.0269 24 16.6429V17.2829C24 20.9042 24 22.7122 22.88 23.8429C21.744 24.9629 19.936 24.9629 16.32 24.9629H15.68C12.0587 24.9629 10.2507 24.9629 9.12 23.8429C8 22.7069 8 20.8989 8 17.2829V16.6429Z" fill="#F5F5F5"/>
</svg>
