<svg width="32" height="33" viewBox="0 0 32 33" fill="none" xmlns="http://www.w3.org/2000/svg">
<path fill-rule="evenodd" clip-rule="evenodd" d="M12.6 22.6629C13.6 23.2629 14.8 23.5629 16 23.5629C19.7 23.5629 22.6 20.5629 22.6 17.0629C22.6 15.2629 22 13.6629 20.7 12.3629C19.4 11.1629 17.8 10.4629 16 10.4629C12.4 10.4629 9.39999 13.4629 9.39999 17.0629C9.39999 18.2629 9.7 19.4629 10.4 20.5629L10.6 20.8629L9.89999 23.2629L12.4 22.5629L12.6 22.6629ZM18.2 17.9629C18.4 17.9629 19.4 18.4629 19.6 18.5629C19.6311 18.5785 19.6623 18.5916 19.6931 18.6046C19.8599 18.675 20.0156 18.7407 20.1 19.1629C20.2 19.1629 20.2 19.5629 20 20.0629C19.9 20.4629 19.1 20.9629 18.7 20.9629C18.6322 20.9629 18.5673 20.9686 18.498 20.9748C18.1582 21.0048 17.712 21.0443 16.3 20.4629C14.5475 19.7619 13.3325 18.0628 12.9913 17.5857C12.9431 17.5183 12.9124 17.4753 12.9 17.4629C12.883 17.4288 12.8485 17.3745 12.8031 17.3028C12.5819 16.9535 12.1 16.1926 12.1 15.3629C12.1 14.3629 12.6 13.8629 12.8 13.6629C13 13.4629 13.2 13.4629 13.3 13.4629H13.7C13.8 13.4629 14 13.4629 14.1 13.7629C14.3 14.1629 14.7 15.1629 14.7 15.2629C14.7 15.2962 14.7111 15.3296 14.7222 15.3629C14.7445 15.4296 14.7667 15.4962 14.7 15.5629C14.65 15.6129 14.625 15.6629 14.6 15.7129C14.575 15.7629 14.55 15.8129 14.5 15.8629L14.2 16.1629C14.1 16.2629 14 16.3629 14.1 16.5629C14.2 16.7629 14.6 17.4629 15.2 17.9629C15.8751 18.5536 16.4078 18.7883 16.6778 18.9072C16.7278 18.9292 16.7688 18.9473 16.8 18.9629C17 18.9629 17.1 18.9629 17.2 18.8629C17.25 18.7629 17.375 18.6129 17.5 18.4629C17.625 18.3129 17.75 18.1629 17.8 18.0629C17.9 17.8629 18 17.8629 18.2 17.9629Z" fill="#00130C"/>
<path fill-rule="evenodd" clip-rule="evenodd" d="M0 16.9629C0 8.12634 7.16344 0.962891 16 0.962891C24.8366 0.962891 32 8.12634 32 16.9629C32 25.7994 24.8366 32.9629 16 32.9629C7.16344 32.9629 0 25.7994 0 16.9629ZM16 8.96289C18.1 8.96289 20.1 9.76289 21.6 11.2629C23.1 12.7629 24 14.7629 24 16.8629C24 21.2629 20.4 24.8629 16 24.8629C14.7 24.8629 13.4 24.4629 12.2 23.8629L8 24.9629L9.10001 20.9629C8.40001 19.7629 8 18.3629 8 16.9629C8 12.5629 11.6 8.96289 16 8.96289Z" fill="#00130C"/>
</svg>
